<?xml version="1.0" encoding="UTF-8"?>
<svg id="Camada_1" data-name="Camada 1" xmlns="http://www.w3.org/2000/svg" version="1.1" viewBox="0 0 500 500">
  <defs>
    <style>
      .cls-1 {
        fill: #301500;
        stroke-width: 0px;
      }
    </style>
  </defs>
  <path class="cls-1" d="M187.1,261.7h-45.5v49.8h45.5c13.8,0,25-11,25.1-24.7,0-13.8-11-25-24.7-25.1h-.4Z"/>
  <path class="cls-1" d="M207.8,208c0-12.9-10.5-23.4-23.4-23.4h-42.7v46.9h42.8c12.9,0,23.4-10.5,23.4-23.4h-.1Z"/>
  <path class="cls-1" d="M326.4,234.4c-15.1,0-27.8,11.3-29.6,26.3h59.3c-1.8-15-14.5-26.3-29.6-26.3h0Z"/>
  <path class="cls-1" d="M249.7,0C111.6,0-.3,111.9-.3,250s111.9,250,250,250,250-111.9,250-250S387.7,0,249.7,0ZM197.8,340.8h-92.4v-186.5h89.5c26.2,0,47.4,21.3,47.4,47.5s-9.9,34.1-25.7,42.2c25.7,10.4,38.1,39.8,27.7,65.5-7.7,19-26.1,31.4-46.6,31.4h.1ZM280.3,165h90.8v22.5h-90.8v-22.5ZM390.7,285.2h-93.3v1.2c0,16.8,13.6,30.5,30.5,30.5s20.9-5.8,26.3-15.1h35.6c-8.7,29.7-34.7,43-63.1,43s-65.5-31-65.5-69.1,27.9-69.1,65.5-69.1,70.5,32.2,63.9,78.7h.1Z"/>
</svg>