<?xml version="1.0" encoding="UTF-8"?>
<svg id="Camada_1" data-name="Camada 1" xmlns="http://www.w3.org/2000/svg" version="1.1" viewBox="0 0 500 500">
  <defs>
    <style>
      .cls-1 {
        fill: #301500;
        stroke-width: 0px;
      }
    </style>
  </defs>
  <path class="cls-1" d="M409,57.1c-2.3-1.9-4.7-3.8-7.1-5.6-1.6-1.2-3.2-2.4-4.8-3.6-1.6-1.2-3.2-2.3-4.9-3.5-.8-.6-1.7-1.1-2.5-1.7-2.5-1.7-5-3.3-7.6-4.9t0,0c-17-10.7-35.5-19.3-54.9-25.6-3.9-1.3-7.8-2.4-11.8-3.5-5-1.3-10-2.5-15.1-3.6-4.1-.8-8.2-1.6-12.3-2.2-12.4-1.9-25.1-2.9-38.1-2.9s-25.7,1-38.1,2.9c-4.1.6-8.2,1.4-12.3,2.2-5.1,1-10.1,2.2-15.1,3.6-4,1.1-7.9,2.2-11.8,3.5-19.5,6.3-37.9,15-54.9,25.6t0,0c-2.6,1.6-5.1,3.2-7.6,4.9-.8.6-1.7,1.1-2.5,1.7-1.6,1.1-3.3,2.3-4.9,3.5-1.6,1.2-3.2,2.4-4.8,3.6-2.4,1.8-4.7,3.7-7.1,5.6-12.3,10.2-23.7,21.5-33.9,33.9-1.9,2.3-3.8,4.7-5.6,7.1-1.2,1.6-2.4,3.2-3.6,4.8-1.2,1.6-2.3,3.2-3.5,4.9-.6.8-1.1,1.7-1.7,2.5-1.7,2.5-3.3,5-4.9,7.6t0,0c-10.7,17-19.3,35.5-25.6,54.9-1.3,3.9-2.4,7.8-3.5,11.8-1.3,5-2.5,10-3.6,15.1-.8,4.1-1.6,8.2-2.2,12.3-1.9,12.4-2.9,25.1-2.9,38.1s1,25.7,2.9,38.1c.6,4.1,1.4,8.2,2.2,12.3,1,5.1,2.2,10.1,3.6,15.1,1.1,4,2.2,7.9,3.5,11.8t0,0c6.3,19.5,15,37.9,25.6,54.9t0,0c1.6,2.6,3.2,5.1,4.9,7.6.6.8,1.1,1.7,1.7,2.5,1.1,1.6,2.3,3.3,3.5,4.9,1.2,1.6,2.4,3.2,3.6,4.8,1.8,2.4,3.7,4.7,5.6,7.1,25.5,30.9,58.2,55.5,95.6,71.3,5.6,2.4,11.3,4.5,17.1,6.5,0,0,0,0,0,0,2.9,1,5.8,1.9,8.8,2.8,1,.3,2,.6,3,.9,5.9,1.7,12,3.1,18,4.4,16.3,3.3,33.1,5.1,50.4,5.1,32.4,0,63.3-6.2,91.7-17.3,1.9-.8,3.8-1.5,5.6-2.3,16.8-7.1,32.7-16,47.4-26.5,1.6-1.2,3.2-2.3,4.8-3.5,0,0,0,0,0,0,3.2-2.4,6.3-4.9,9.4-7.4h0c12.3-10.2,23.7-21.5,33.9-33.9h0c2.5-3.1,5-6.2,7.4-9.4,0,0,0,0,0,0,1.2-1.6,2.4-3.2,3.5-4.8,10.5-14.7,19.4-30.6,26.5-47.4.8-1.9,1.5-3.8,2.3-5.6,11.2-28.4,17.3-59.3,17.3-91.7,0-77.7-35.4-147.1-91-192.9ZM333.4,267.7h0c-6.7,8.3-15.4,14.4-25.2,19-9.5,4.4-19.5,6.9-29.8,8.2-.2,0-.5.2-.9.4,7.1,10.1,8.2,21.5,8.1,33.3-.2,17.2-.1,34.3,0,51.5,0,2.7-.8,3.4-3.4,3.4-21.3,0-42.5,0-63.8,0-2.6,0-3.5-.8-3.5-3.4,0-9.3,0-18.6,0-27.9,0-1.4,0-2.6,0-4-4,.4-7.3.8-10.7,1.2-17.4,1.7-32.7-3-44.2-16.6-3.6-4.2-5.6-9.8-8.7-14.5-4.7-7.4-9.6-14.8-14.8-21.9-1.8-2.5-4.9-3.9-7.3-6-.8-.7-1-1.9-1.6-2.9,1.1-.4,2.1-1.1,3.2-1.3,13.8-1.3,23.5,5.1,30.3,16.5,8.5,14.3,20.7,22,37.3,22s9.6-1.6,14.3-2.7c.9-.2,2-1.6,2.1-2.6.8-6.2,1.6-12.5,4.5-18.2,1.1-2.1,2.3-4.1,3.6-6.2-4.8-1-9.5-1.7-14.1-2.8-21.3-5.4-38.8-16.1-49-36.3-4-7.9-6.2-16.4-6.5-25.3-.5-13.7-.3-27.4,2.4-40.9,2-9.5,5.6-18.3,12.8-25.1,1.6-1.5,1.9-2.8,1-5.1-4-11.2-4.4-22.6-1-34,.7-2.5,1.4-4.9,2.1-7.5,16.4,3.1,26.2,14.2,35.4,26.5,9.5-7,20.7-7.6,31.6-8.3,12.9-.8,25.9-.7,38.8,1.4,6.7,1.1,10.9,2.5,17.4,6.4,5.6-5.8,10.9-11.7,16.7-17,4.6-4.3,10.4-7,16.6-8.4,1.7-.4,2.6-.2,3.4,1.7,4.9,13.2,5.6,26.4.2,39.7-.7,1.8-.7,3,.8,4.5,8.6,8.2,12.6,18.8,13.9,30.3,1.2,10.6,1.8,21.3,1.8,31.9,0,15.2-4.5,29.1-14,41Z"/>
</svg>