<?xml version="1.0" encoding="UTF-8"?>
<svg id="Camada_1" data-name="Camada 1" xmlns="http://www.w3.org/2000/svg" version="1.1" viewBox="0 0 500 500">
  <defs>
    <style>
      .cls-1 {
        fill: #301500;
        stroke-width: 0px;
      }
    </style>
  </defs>
  <path class="cls-1" d="M250,0C111.9,0,0,111.9,0,250s111.9,250,250,250,250-111.9,250-250S388.1,0,250,0ZM179,374h-56v-175h56v175ZM151.3,176c-17.3,0-31.3-14-31.3-31.3s14-31.3,31.3-31.3,31.3,14,31.3,31.3h0c0,17.3-14,31.3-31.3,31.3ZM380,374h-55v-95.6c0-4.9.8-37.1-26.4-37.1-9.8-.2-19.1,4.3-25,12.3-5,6.7-7.7,14.9-7.6,23.2v97.1h-55v-175h52v24.6c12.5-19.1,28.2-26.1,43.7-28.9,27.5-5,73.3,11.7,73.3,61.5v117.9Z"/>
</svg>