<?xml version="1.0" encoding="UTF-8"?>
<svg id="Camada_1" data-name="Camada 1" xmlns="http://www.w3.org/2000/svg" version="1.1" viewBox="0 0 500 500">
  <defs>
    <style>
      .cls-1 {
        fill: #301500;
        fill-rule: evenodd;
        stroke-width: 0px;
      }
    </style>
  </defs>
  <path class="cls-1" d="M409,57.1c-2.3-1.9-4.7-3.8-7.1-5.6-1.6-1.2-3.2-2.4-4.8-3.6-1.6-1.2-3.2-2.3-4.9-3.5-.8-.6-1.7-1.1-2.5-1.7-2.5-1.7-5-3.3-7.6-4.9h0c-17-10.7-35.5-19.3-54.9-25.6-3.9-1.3-7.8-2.4-11.8-3.5-5-1.3-10-2.5-15.1-3.6-4.1-.8-8.2-1.6-12.3-2.2-12.4-1.9-25.1-2.9-38.1-2.9s-25.7,1-38.1,2.9c-4.1.6-8.2,1.4-12.3,2.2-5.1,1-10.1,2.2-15.1,3.6-4,1.1-7.9,2.2-11.8,3.5-19.5,6.3-37.9,15-54.9,25.6h0c-2.6,1.6-5.1,3.2-7.6,4.9-.8.6-1.7,1.1-2.5,1.7-1.6,1.1-3.3,2.3-4.9,3.5-1.6,1.2-3.2,2.4-4.8,3.6-2.4,1.8-4.7,3.7-7.1,5.6-12.3,10.2-23.7,21.5-33.9,33.9-1.9,2.3-3.8,4.7-5.6,7.1-1.2,1.6-2.4,3.2-3.6,4.8-1.2,1.6-2.3,3.2-3.5,4.9-.6.8-1.1,1.7-1.7,2.5-1.7,2.5-3.3,5-4.9,7.6h0c-10.7,17.1-19.3,35.5-25.6,55-1.3,3.9-2.4,7.8-3.5,11.8-1.3,5-2.5,10-3.6,15.1-.8,4.1-1.6,8.2-2.2,12.3-1.9,12.4-2.9,25.1-2.9,38.1s1,25.7,2.9,38.1c.6,4.1,1.4,8.2,2.2,12.3,1,5.1,2.2,10.1,3.6,15.1,1.1,4,2.2,7.9,3.5,11.8,0,0,0,0,0,0,6.3,19.5,15,37.9,25.6,54.9h0c1.6,2.6,3.2,5.1,4.9,7.6.6.8,1.1,1.7,1.7,2.5,1.1,1.6,2.3,3.3,3.5,4.9,1.2,1.6,2.4,3.2,3.6,4.8,1.8,2.4,3.7,4.7,5.6,7.1,25.5,30.9,58.2,55.5,95.6,71.3,5.6,2.4,11.3,4.5,17.1,6.5,0,0,0,0,0,0,2.9,1,5.8,1.9,8.8,2.8,1,.3,2,.6,3,.9,5.9,1.7,12,3.1,18,4.4,16.3,3.3,33.1,5.1,50.4,5.1,32.4,0,63.3-6.2,91.7-17.3,1.9-.8,3.8-1.5,5.6-2.3,16.8-7.1,32.7-16,47.4-26.5,1.6-1.2,3.2-2.3,4.8-3.5,0,0,0,0,0,0,3.2-2.4,6.3-4.9,9.4-7.4t0,0c12.3-10.2,23.7-21.5,33.9-33.9t0,0c2.5-3.1,5-6.2,7.4-9.4,0,0,0,0,0,0,1.2-1.6,2.4-3.2,3.5-4.8,10.5-14.7,19.4-30.6,26.5-47.4.8-1.9,1.5-3.8,2.3-5.6,11.2-28.4,17.3-59.3,17.3-91.7,0-77.7-35.4-147.1-91-192.9ZM373,323c0,7.7-5.7,14-13.4,14h-221.2c-7.8,0-13.4-6.3-13.4-14v-142c0-8.3,4.7-15.1,13.4-15.1h221.2c8.4,0,13.4,6.6,13.4,15.1v142Z"/>
  <path class="cls-1" d="M353.6,194.1h-.2c0,3.5-7,7.1-11.5,9.9-28.5,17.4-56.9,36.3-85.1,54.3-1.7,1.1-4.8,3.5-7.2,3.1-2.7-.4-84.4-52.9-99.2-61.6-2.2-1.3-5-2.5-5-5.7s2.1-5.4,5.4-5.4,82.3,50.9,87.2,53.9l12.6,7.8c4-2.7,8-5,12.1-7.7,8.4-5.4,83.4-54,85.5-54,3.3,0,5.4,2,5.4,5.4Z"/>
</svg>