<?xml version="1.0" encoding="UTF-8"?>
<svg id="Camada_1" data-name="Camada 1" xmlns="http://www.w3.org/2000/svg" version="1.1" viewBox="0 0 500 500">
  <defs>
    <style>
      .cls-1 {
        fill: #301500;
        stroke-width: 0px;
      }
    </style>
  </defs>
  <path class="cls-1" d="M250,0C111.9,0,0,111.9,0,250s111.9,250,250,250,250-111.9,250-250S388.1,0,250,0ZM343,320.2c-17.5,22.3-40.4,36.6-68,43-12,2.8-24.2,3.6-36.5,2.5-15.2-1.3-29.6-5.3-43.2-12.1-.3-.1-.6-.2-.8-.4-1.9-1.4-3.7-1.3-5.9-.8-19.6,5.3-39.3,10.4-59,15.5-.2,0-.5.1-.9.2,1.3-4.7,2.5-9.2,3.7-13.7,4.3-15.7,8.6-31.3,12.9-47,.2-.6,0-1.1-.2-1.7-7.3-12.9-12-26.7-14.2-41.4-.8-5.8-1.3-11.6-1.2-17.5.3-30.1,10.4-56.5,30.4-78.9,16.3-18.2,36.4-30.2,60.2-36.2,8.3-2.1,16.7-3.1,25.3-3.3,19-.5,37,3.3,54.2,11.5,11.7,5.6,22.1,12.9,31.4,21.9,10.5,10.2,19.1,21.9,25.5,35.1,5.4,11,9.1,22.5,10.7,34.6,4.3,32.9-3.9,62.5-24.4,88.6Z"/>
  <path class="cls-1" d="M344.4,222.7c-5.4-18.5-15.4-34.1-29.6-47.1-16-14.8-35-23.2-56.6-25.5-10-1-20-.6-29.9,1.5-20.4,4.2-37.8,13.9-52,29-16.3,17.4-25.3,38-26.8,61.9-.9,13.4,1,26.5,5.5,39.2,2.8,7.9,6.6,15.2,11.2,22.2.4.6.5,1.1.3,1.8-2.7,9.9-5.4,19.8-8.1,29.7-.5,1.9-1,3.8-1.6,5.9.4,0,.7-.1.9-.2,11.8-3.1,23.6-6.2,35.3-9.3.8-.2,1.4-.1,2.1.3,16.9,10.5,35.3,15.7,55.3,15.3,6.2-.1,12.3-.8,18.3-2.1,20.3-4.4,37.7-14.1,52-29.1,17.3-18.2,26.4-40,27.3-65.1.3-9.6-.9-19-3.6-28.2ZM305.2,292.8c-2.3,3.5-5.9,5.8-9.6,7.8-6.8,3.9-14,4.5-21.5,3.4-7.9-1.2-15.1-4.2-22.4-7.3-10.3-4.4-19.4-10.7-27.7-18.2-8.8-7.9-16.4-16.8-23.3-26.5-3.9-5.5-7.3-11.1-9.6-17.4-3-8-3.7-16.2-1.1-24.5,1.5-4.9,4.3-9,7.6-12.8,3.4-3.9,7.5-5.5,12.5-4.9,1.2,0,2.5.1,3.7.2,1.4,0,2.4.7,3.3,1.7.9,1,1.5,2.3,2,3.5,3.1,7.5,6.1,15.1,9.4,22.5.7,1.6.7,3.2-.1,4.8-1.9,3.7-4.4,6.9-7.2,9.9-2.7,2.7-2.8,3.8-.8,7.1,5,8.4,11,16,18.8,22,5.5,4.2,11.5,7.6,17.7,10.7,1.4.7,2.8,1.5,4.3,2.1,2.4,1,4,.6,5.7-1.3,3.3-3.9,6.6-7.7,9.6-11.9,1.3-1.9,2.7-2.3,5-1.6,3.2,1,6.1,2.5,9,3.9,5.2,2.5,10.3,5,15.5,7.6.5.2.9.5,1.3.7,1.1.7,1.8,1.5,1.9,2.9.1,5.5-.6,10.9-3.8,15.6Z"/>
</svg>